<?xml version="1.0" standalone="no"?><!DOCTYPE svg PUBLIC "-//W3C//DTD SVG 1.1//EN" "http://www.w3.org/Graphics/SVG/1.1/DTD/svg11.dtd"><svg t="1629721463611" class="icon" viewBox="0 0 1024 1024" version="1.1" xmlns="http://www.w3.org/2000/svg" p-id="885" xmlns:xlink="http://www.w3.org/1999/xlink" width="400" height="400"><defs><style type="text/css"></style></defs><path d="M208.68 690.2s46.34 21.25 152.3 1.5 113.88 14.71 185.18 10.66c71.3-4.05 114.8-20.94 174.29-20.94 40.4 0 91.1 13.09 95.07 16s-2.38 114.59-2.38 114.59l-610.19 2.96 5.73-124.77z" fill="#1296db" opacity=".5" p-id="886"></path><path d="M387.29 216.07c-94.24 0-170.61 76.37-170.61 170.61v374.51c0 25.29 20.48 45.77 45.77 45.77h499.34c25.29 0 45.77-20.48 45.77-45.77V386.68c0-94.24-76.37-170.61-170.61-170.61H387.29z m0-37.45h249.67c114.88 0 208.06 93.18 208.06 208.06v374.51c0 45.94-37.29 83.23-83.22 83.23H262.45c-45.94 0-83.22-37.29-83.22-83.23V386.68c0-114.89 93.18-208.06 208.06-208.06z m457.72 208.06l49.61 25.78c20.64 10.77 33.62 32.06 33.62 55.4v90.24c0 24.4-14.2 46.51-36.31 56.71l-46.92 21.54V386.68z m-665.78 0l-49.61 25.78C108.98 423.23 96 444.61 96 467.86v90.24c0 24.4 14.2 46.51 36.31 56.71l46.92 21.54V386.68z m0 0" fill="#1296db" p-id="887"></path><path d="M449.71 407.48c0 34.47 27.94 62.42 62.42 62.42 34.47 0 62.42-27.95 62.42-62.42s-27.94-62.42-62.42-62.42c-34.48 0-62.42 27.95-62.42 62.42z m0 0M449.71 657.15c0 34.47 27.94 62.42 62.42 62.42 34.47 0 62.42-27.94 62.42-62.42 0-34.47-27.94-62.42-62.42-62.42-34.48 0-62.42 27.95-62.42 62.42z m0 0M304.06 532.32c0 34.47 27.94 62.42 62.42 62.42 34.47 0 62.42-27.94 62.42-62.42s-27.94-62.42-62.42-62.42c-34.47 0-62.42 27.94-62.42 62.42z m0 0M595.35 532.32c0 34.47 27.94 62.42 62.42 62.42 34.47 0 62.42-27.94 62.42-62.42s-27.94-62.42-62.42-62.42c-34.48 0-62.42 27.94-62.42 62.42z m0 0" fill="#1296db" p-id="888"></path></svg>