<?xml version="1.0" standalone="no"?><!DOCTYPE svg PUBLIC "-//W3C//DTD SVG 1.1//EN" "http://www.w3.org/Graphics/SVG/1.1/DTD/svg11.dtd"><svg t="1629715649678" class="icon" viewBox="0 0 1024 1024" version="1.1" xmlns="http://www.w3.org/2000/svg" p-id="1916" width="400" height="400" xmlns:xlink="http://www.w3.org/1999/xlink"><defs><style type="text/css"></style></defs><path d="M512 512m-251.36 0a251.36 251.36 0 1 0 502.72 0 251.36 251.36 0 1 0-502.72 0Z" fill="#1296db" p-id="1917"></path><path d="M546.56 185.6A34.56 34.56 0 1 1 512 151.04a34.72 34.72 0 0 1 34.56 34.56zM546.56 838.4A34.56 34.56 0 1 1 512 803.68a34.56 34.56 0 0 1 34.56 34.72zM378.88 212a34.72 34.72 0 1 1-48-12.64 34.72 34.72 0 0 1 48 12.64zM705.12 777.28a34.72 34.72 0 1 1-48-12.64 34.72 34.72 0 0 1 48 12.64zM246.72 318.88a34.72 34.72 0 1 1-48 12.64 34.56 34.56 0 0 1 48-12.64zM812 645.12a34.72 34.72 0 1 1-48 12.8 34.88 34.88 0 0 1 48-12.8zM185.6 477.44A34.56 34.56 0 1 1 151.04 512a34.72 34.72 0 0 1 34.56-34.56zM838.4 477.44A34.56 34.56 0 1 1 803.68 512a34.56 34.56 0 0 1 34.72-34.56zM212 645.12a34.72 34.72 0 1 1-12.64 48 34.72 34.72 0 0 1 12.64-48zM777.28 318.88a34.72 34.72 0 1 1-12.64 47.2 34.72 34.72 0 0 1 12.64-47.2zM318.88 777.28a34.72 34.72 0 1 1 12.64 48 34.56 34.56 0 0 1-12.64-48zM645.12 212a34.72 34.72 0 1 1 12.8 48 34.88 34.88 0 0 1-12.8-48z" fill="#1296db" p-id="1918"></path></svg>